<svg xmlns="http://www.w3.org/2000/svg" viewBox="0 0 640 480" width="640" height="480" role="img"><title>Platzhalterbild</title><defs><linearGradient id="g" x1="0" y1="0" x2="1" y2="1"><stop offset="0" stop-color="#F5E4DF"/><stop offset="1" stop-color="#FBF7F2"/></linearGradient></defs><rect width="640" height="480" fill="url(#g)"/><rect x="0" y="400" width="640" height="80" fill="#E8DCCD" opacity=".55"/><path d="M230 260 Q203.0 183.5 181.4 107.0" fill="none" stroke="#6B5F58" stroke-width="1.4" opacity=".7"/><circle cx="191.3" cy="107.0" r="4.5" fill="#E8DCCD" opacity=".9"/><circle cx="187.6" cy="114.7" r="4.5" fill="#E8DCCD" opacity=".9"/><circle cx="179.2" cy="116.7" r="4.5" fill="#E8DCCD" opacity=".9"/><circle cx="172.5" cy="111.3" r="4.5" fill="#E8DCCD" opacity=".9"/><circle cx="172.5" cy="102.7" r="4.5" fill="#E8DCCD" opacity=".9"/><circle cx="179.2" cy="97.3" r="4.5" fill="#E8DCCD" opacity=".9"/><circle cx="187.6" cy="99.3" r="4.5" fill="#E8DCCD" opacity=".9"/><path d="M230 260 Q221.0 165.5 213.8 71.0" fill="none" stroke="#6B5F58" stroke-width="1.4" opacity=".7"/><circle cx="223.7" cy="71.0" r="4.5" fill="#F2CBA9" opacity=".9"/><circle cx="220.0" cy="78.7" r="4.5" fill="#F2CBA9" opacity=".9"/><circle cx="211.6" cy="80.7" r="4.5" fill="#F2CBA9" opacity=".9"/><circle cx="204.9" cy="75.3" r="4.5" fill="#F2CBA9" opacity=".9"/><circle cx="204.9" cy="66.7" r="4.5" fill="#F2CBA9" opacity=".9"/><circle cx="211.6" cy="61.3" r="4.5" fill="#F2CBA9" opacity=".9"/><circle cx="220.0" cy="63.3" r="4.5" fill="#F2CBA9" opacity=".9"/><path d="M230 260 Q240.8 174.5 249.44 89.0" fill="none" stroke="#6B5F58" stroke-width="1.4" opacity=".7"/><circle cx="259.3" cy="89.0" r="4.5" fill="#D9A9A0" opacity=".9"/><circle cx="255.6" cy="96.7" r="4.5" fill="#D9A9A0" opacity=".9"/><circle cx="247.2" cy="98.7" r="4.5" fill="#D9A9A0" opacity=".9"/><circle cx="240.5" cy="93.3" r="4.5" fill="#D9A9A0" opacity=".9"/><circle cx="240.5" cy="84.7" r="4.5" fill="#D9A9A0" opacity=".9"/><circle cx="247.2" cy="79.3" r="4.5" fill="#D9A9A0" opacity=".9"/><circle cx="255.6" cy="81.3" r="4.5" fill="#D9A9A0" opacity=".9"/><path d="M230 260 Q257.0 188.0 278.6 116.0" fill="none" stroke="#6B5F58" stroke-width="1.4" opacity=".7"/><circle cx="288.5" cy="116.0" r="4.5" fill="#E8DCCD" opacity=".9"/><circle cx="284.8" cy="123.7" r="4.5" fill="#E8DCCD" opacity=".9"/><circle cx="276.4" cy="125.7" r="4.5" fill="#E8DCCD" opacity=".9"/><circle cx="269.7" cy="120.3" r="4.5" fill="#E8DCCD" opacity=".9"/><circle cx="269.7" cy="111.7" r="4.5" fill="#E8DCCD" opacity=".9"/><circle cx="276.4" cy="106.3" r="4.5" fill="#E8DCCD" opacity=".9"/><circle cx="284.8" cy="108.3" r="4.5" fill="#E8DCCD" opacity=".9"/><path d="M230 260 Q230.0 156.5 230.0 53.0" fill="none" stroke="#6B5F58" stroke-width="1.4" opacity=".7"/><circle cx="239.9" cy="53.0" r="4.5" fill="#A8B5A0" opacity=".9"/><circle cx="236.2" cy="60.7" r="4.5" fill="#A8B5A0" opacity=".9"/><circle cx="227.8" cy="62.7" r="4.5" fill="#A8B5A0" opacity=".9"/><circle cx="221.1" cy="57.3" r="4.5" fill="#A8B5A0" opacity=".9"/><circle cx="221.1" cy="48.7" r="4.5" fill="#A8B5A0" opacity=".9"/><circle cx="227.8" cy="43.3" r="4.5" fill="#A8B5A0" opacity=".9"/><circle cx="236.2" cy="45.3" r="4.5" fill="#A8B5A0" opacity=".9"/><path d="M206.6 260 Q176.0 323.0 199.4 368.0 L260.6 368.0 Q284.0 323.0 253.4 260Z" fill="#E4E9DF" stroke="#A8B5A0" stroke-width="2"/><path d="M360 150 h120 v190 a10 10 0 0 1 -10 10 h-100 a10 10 0 0 1 -10 -10z" fill="#D9A9A0" opacity=".65"/><circle cx="420" cy="175" r="9" fill="#FBF7F2"/><path d="M420 175 q-30 -60 -90 -70" stroke="#6B5F58" fill="none" stroke-width="2"/><g transform="rotate(0 420 320)"><path d="M420 320 Q427.2 284.0 421.8 248.0" fill="none" stroke="#5C6B55" stroke-width="1.4" stroke-linecap="round"/><ellipse cx="411.9" cy="320.0" rx="7.2" ry="2.9" transform="rotate(35 411.9 320.0)" fill="none" stroke="#5C6B55" stroke-width="1.3"/><ellipse cx="428.1" cy="320.0" rx="7.2" ry="2.9" transform="rotate(-35 428.1 320.0)" fill="none" stroke="#5C6B55" stroke-width="1.3"/><ellipse cx="415.6" cy="304.2" rx="7.2" ry="2.9" transform="rotate(35 415.6 304.2)" fill="none" stroke="#5C6B55" stroke-width="1.3"/><ellipse cx="431.8" cy="304.2" rx="7.2" ry="2.9" transform="rotate(-35 431.8 304.2)" fill="none" stroke="#5C6B55" stroke-width="1.3"/><ellipse cx="417.3" cy="288.5" rx="7.2" ry="2.9" transform="rotate(35 417.3 288.5)" fill="none" stroke="#5C6B55" stroke-width="1.3"/><ellipse cx="433.5" cy="288.5" rx="7.2" ry="2.9" transform="rotate(-35 433.5 288.5)" fill="none" stroke="#5C6B55" stroke-width="1.3"/><ellipse cx="416.1" cy="272.8" rx="7.2" ry="2.9" transform="rotate(35 416.1 272.8)" fill="none" stroke="#5C6B55" stroke-width="1.3"/><ellipse cx="432.3" cy="272.8" rx="7.2" ry="2.9" transform="rotate(-35 432.3 272.8)" fill="none" stroke="#5C6B55" stroke-width="1.3"/><ellipse cx="412.7" cy="257.0" rx="7.2" ry="2.9" transform="rotate(35 412.7 257.0)" fill="none" stroke="#5C6B55" stroke-width="1.3"/><ellipse cx="428.9" cy="257.0" rx="7.2" ry="2.9" transform="rotate(-35 428.9 257.0)" fill="none" stroke="#5C6B55" stroke-width="1.3"/><circle cx="432.6" cy="284.0" r="2.7" fill="#9E5546" opacity=".85"/><circle cx="409.2" cy="267.8" r="2.7" fill="#9E5546" opacity=".85"/><circle cx="423.6" cy="249.8" r="2.7" fill="#9E5546" opacity=".85"/><circle cx="434.4" cy="302.0" r="2.7" fill="#9E5546" opacity=".85"/></g></svg>
