<svg xmlns="http://www.w3.org/2000/svg" viewBox="0 0 480 480" width="480" height="480" role="img"><title>Hej Lejo Inspiration</title><defs><linearGradient id="g" x1="0" y1="0" x2="1" y2="1"><stop offset="0" stop-color="#F4ECE3"/><stop offset="1" stop-color="#E4E9DF"/></linearGradient></defs><rect width="480" height="480" fill="url(#g)"/><rect x="120" y="200" width="90" height="200" rx="7.2" fill="#FFFDF9" stroke="#E8DCCD" stroke-width="2"/><ellipse cx="165.0" cy="204" rx="42.0" ry="6.3" fill="#F4ECE3"/><line x1="165.0" y1="202" x2="165.0" y2="188" stroke="#3A3330" stroke-width="2" stroke-linecap="round"/><ellipse cx="165.0" cy="170" rx="22" ry="34" fill="#F2CBA9" opacity=".25"/><path d="M165.0 152 C176.0 168 174.0 186 165.0 186 C156.0 186 154.0 168 165.0 152Z" fill="#D4A23F"/><path d="M165.0 166 C170.0 176 169.0 186 165.0 186 C161.0 186 160.0 176 165.0 166Z" fill="#FFFDF9" opacity=".8"/><rect x="250" y="150" width="110" height="260" rx="8.8" fill="#FFFDF9" stroke="#E8DCCD" stroke-width="2"/><ellipse cx="305.0" cy="154" rx="52.0" ry="7.7" fill="#F4ECE3"/><line x1="305.0" y1="152" x2="305.0" y2="138" stroke="#3A3330" stroke-width="2" stroke-linecap="round"/><ellipse cx="305.0" cy="120" rx="22" ry="34" fill="#F2CBA9" opacity=".25"/><path d="M305.0 102 C316.0 118 314.0 136 305.0 136 C296.0 136 294.0 118 305.0 102Z" fill="#D4A23F"/><path d="M305.0 116 C310.0 126 309.0 136 305.0 136 C301.0 136 300.0 126 305.0 116Z" fill="#FFFDF9" opacity=".8"/><g transform="rotate(-8 296.2 378.8)"><path d="M296.2 378.8 Q305.3666666666667 332.9666666666667 298.4916666666667 287.1333333333333" fill="none" stroke="#5C6B55" stroke-width="1.8" stroke-linecap="round"/><ellipse cx="285.9" cy="378.8" rx="9.2" ry="3.7" transform="rotate(35 285.9 378.8)" fill="none" stroke="#5C6B55" stroke-width="1.6"/><ellipse cx="306.5" cy="378.8" rx="9.2" ry="3.7" transform="rotate(-35 306.5 378.8)" fill="none" stroke="#5C6B55" stroke-width="1.6"/><ellipse cx="290.6" cy="358.7" rx="9.2" ry="3.7" transform="rotate(35 290.6 358.7)" fill="none" stroke="#5C6B55" stroke-width="1.6"/><ellipse cx="311.2" cy="358.7" rx="9.2" ry="3.7" transform="rotate(-35 311.2 358.7)" fill="none" stroke="#5C6B55" stroke-width="1.6"/><ellipse cx="292.7" cy="338.7" rx="9.2" ry="3.7" transform="rotate(35 292.7 338.7)" fill="none" stroke="#5C6B55" stroke-width="1.6"/><ellipse cx="313.4" cy="338.7" rx="9.2" ry="3.7" transform="rotate(-35 313.4 338.7)" fill="none" stroke="#5C6B55" stroke-width="1.6"/><ellipse cx="291.2" cy="318.6" rx="9.2" ry="3.7" transform="rotate(35 291.2 318.6)" fill="none" stroke="#5C6B55" stroke-width="1.6"/><ellipse cx="311.9" cy="318.6" rx="9.2" ry="3.7" transform="rotate(-35 311.9 318.6)" fill="none" stroke="#5C6B55" stroke-width="1.6"/><ellipse cx="286.9" cy="298.6" rx="9.2" ry="3.7" transform="rotate(35 286.9 298.6)" fill="none" stroke="#5C6B55" stroke-width="1.6"/><ellipse cx="307.5" cy="298.6" rx="9.2" ry="3.7" transform="rotate(-35 307.5 298.6)" fill="none" stroke="#5C6B55" stroke-width="1.6"/><circle cx="312.2" cy="333.0" r="3.4" fill="#9E5546" opacity=".85"/><circle cx="282.4" cy="312.3" r="3.4" fill="#9E5546" opacity=".85"/><circle cx="300.8" cy="289.4" r="3.4" fill="#9E5546" opacity=".85"/><circle cx="314.5" cy="355.9" r="3.4" fill="#9E5546" opacity=".85"/></g><g transform="rotate(18 318.2 384.0)"><path d="M318.2 384.0 Q324.8 351.0 319.84999999999997 318.0" fill="none" stroke="#5C6B55" stroke-width="1.3" stroke-linecap="round"/><ellipse cx="310.8" cy="384.0" rx="6.6" ry="2.6" transform="rotate(35 310.8 384.0)" fill="none" stroke="#5C6B55" stroke-width="1.2"/><ellipse cx="325.6" cy="384.0" rx="6.6" ry="2.6" transform="rotate(-35 325.6 384.0)" fill="none" stroke="#5C6B55" stroke-width="1.2"/><ellipse cx="314.1" cy="369.6" rx="6.6" ry="2.6" transform="rotate(35 314.1 369.6)" fill="none" stroke="#5C6B55" stroke-width="1.2"/><ellipse cx="329.0" cy="369.6" rx="6.6" ry="2.6" transform="rotate(-35 329.0 369.6)" fill="none" stroke="#5C6B55" stroke-width="1.2"/><ellipse cx="315.7" cy="355.1" rx="6.6" ry="2.6" transform="rotate(35 315.7 355.1)" fill="none" stroke="#5C6B55" stroke-width="1.2"/><ellipse cx="330.6" cy="355.1" rx="6.6" ry="2.6" transform="rotate(-35 330.6 355.1)" fill="none" stroke="#5C6B55" stroke-width="1.2"/><ellipse cx="314.6" cy="340.7" rx="6.6" ry="2.6" transform="rotate(35 314.6 340.7)" fill="none" stroke="#5C6B55" stroke-width="1.2"/><ellipse cx="329.5" cy="340.7" rx="6.6" ry="2.6" transform="rotate(-35 329.5 340.7)" fill="none" stroke="#5C6B55" stroke-width="1.2"/><ellipse cx="311.5" cy="326.2" rx="6.6" ry="2.6" transform="rotate(35 311.5 326.2)" fill="none" stroke="#5C6B55" stroke-width="1.2"/><ellipse cx="326.3" cy="326.2" rx="6.6" ry="2.6" transform="rotate(-35 326.3 326.2)" fill="none" stroke="#5C6B55" stroke-width="1.2"/><circle cx="329.8" cy="351.0" r="2.5" fill="#9E5546" opacity=".85"/><circle cx="308.3" cy="336.1" r="2.5" fill="#9E5546" opacity=".85"/><circle cx="321.5" cy="319.6" r="2.5" fill="#9E5546" opacity=".85"/><circle cx="331.4" cy="367.5" r="2.5" fill="#9E5546" opacity=".85"/></g></svg>
