<svg xmlns="http://www.w3.org/2000/svg" viewBox="0 0 480 480" width="480" height="480" role="img"><title>Hej Lejo Inspiration</title><defs><linearGradient id="g" x1="0" y1="0" x2="1" y2="1"><stop offset="0" stop-color="#FBF7F2"/><stop offset="1" stop-color="#F5E4DF"/></linearGradient></defs><rect width="480" height="480" fill="url(#g)"/><rect x="130" y="100" width="220" height="290" rx="6" fill="#FFFDF9" transform="rotate(-5 240 245)"/><g transform="rotate(0 240 330)"><path d="M240 330 Q252.8 266.0 243.2 202.0" fill="none" stroke="#5C6B55" stroke-width="2.6" stroke-linecap="round"/><ellipse cx="225.6" cy="330.0" rx="12.8" ry="5.1" transform="rotate(35 225.6 330.0)" fill="none" stroke="#5C6B55" stroke-width="2.2"/><ellipse cx="254.4" cy="330.0" rx="12.8" ry="5.1" transform="rotate(-35 254.4 330.0)" fill="none" stroke="#5C6B55" stroke-width="2.2"/><ellipse cx="232.1" cy="302.0" rx="12.8" ry="5.1" transform="rotate(35 232.1 302.0)" fill="none" stroke="#5C6B55" stroke-width="2.2"/><ellipse cx="260.9" cy="302.0" rx="12.8" ry="5.1" transform="rotate(-35 260.9 302.0)" fill="none" stroke="#5C6B55" stroke-width="2.2"/><ellipse cx="235.2" cy="274.0" rx="12.8" ry="5.1" transform="rotate(35 235.2 274.0)" fill="none" stroke="#5C6B55" stroke-width="2.2"/><ellipse cx="264.0" cy="274.0" rx="12.8" ry="5.1" transform="rotate(-35 264.0 274.0)" fill="none" stroke="#5C6B55" stroke-width="2.2"/><ellipse cx="233.1" cy="246.0" rx="12.8" ry="5.1" transform="rotate(35 233.1 246.0)" fill="none" stroke="#5C6B55" stroke-width="2.2"/><ellipse cx="261.9" cy="246.0" rx="12.8" ry="5.1" transform="rotate(-35 261.9 246.0)" fill="none" stroke="#5C6B55" stroke-width="2.2"/><ellipse cx="227.0" cy="218.0" rx="12.8" ry="5.1" transform="rotate(35 227.0 218.0)" fill="none" stroke="#5C6B55" stroke-width="2.2"/><ellipse cx="255.8" cy="218.0" rx="12.8" ry="5.1" transform="rotate(-35 255.8 218.0)" fill="none" stroke="#5C6B55" stroke-width="2.2"/><circle cx="262.4" cy="266.0" r="4.8" fill="#9E5546" opacity=".85"/><circle cx="220.8" cy="237.2" r="4.8" fill="#9E5546" opacity=".85"/><circle cx="246.4" cy="205.2" r="4.8" fill="#9E5546" opacity=".85"/><circle cx="265.6" cy="298.0" r="4.8" fill="#9E5546" opacity=".85"/></g></svg>
